<svg xmlns="http://www.w3.org/2000/svg" xmlns:xlink="http://www.w3.org/1999/xlink" width="26" height="24.76190185546875" viewBox="0 0 26 24.76190185546875" fill="none"><g opacity="1"  transform="translate(0 0)  rotate(0)"><mask id="bg-mask-0" fill="white"><use xlink:href="#path_0"></use></mask><g mask="url(#bg-mask-0)" ><path id="路径 1" fill-rule="evenodd" style="fill:currentColor" opacity="1" d="M12.33,24.3374v0.01c-0.7,0.03 -1.46,0.05 -2.28,0.05c-9.89,0 -10.05,-1.64 -10.05,-5.35c0,-2.55 1.07,-5.77 4.09,-7.54c-2.17,-3.03 -1.68,-7.21 1.13,-9.66c2.81,-2.45 7.02,-2.37 9.73,0.18c2.71,2.56 3.04,6.76 0.76,9.7c-2.28,2.95 -6.42,3.69 -9.58,1.71c-2.67,1.05 -3.58,3.37 -3.58,5.17c0,2.41 0.12,3.47 7.23,3.47c0.88,0 1.66,-0.02 2.34,-0.07c0.45,-0.09 0.9,0.08 1.17,0.44c0.27,0.36 0.31,0.85 0.11,1.25c-0.21,0.4 -0.62,0.65 -1.07,0.64zM14.6,7.3574c0,-2.52 -2.04,-4.56 -4.56,-4.56c-2.52,0 -4.56,2.04 -4.56,4.56c0,2.51 2.04,4.56 4.56,4.56c2.52,0 4.56,-2.05 4.56,-4.56zM26.02,18.5474c0,0.77 -0.64,1.4 -1.41,1.4h-3.34v3.35c0,0.78 -0.64,1.41 -1.41,1.41c-0.78,0 -1.41,-0.64 -1.41,-1.41v-3.35h-3.35c-0.77,0 -1.41,-0.63 -1.41,-1.41c0.01,-0.77 0.64,-1.4 1.41,-1.4h3.35v-3.35c0,-0.37 0.15,-0.73 0.41,-0.99c0.27,-0.27 0.62,-0.42 1,-0.42c0.78,0.01 1.41,0.64 1.41,1.41v3.34h3.34c0.78,0.01 1.41,0.64 1.41,1.42z"></path></g></g><defs><rect id="path_0" x="0" y="0" width="26" height="24.76190476190476" /></defs></svg>