<svg xmlns="http://www.w3.org/2000/svg" xmlns:xlink="http://www.w3.org/1999/xlink" width="26" height="26" viewBox="0 0 26 26" fill="none"><g opacity="1"  transform="translate(0 0)  rotate(0)"><mask id="bg-mask-0" fill="white"><use xlink:href="#path_0"></use></mask><g mask="url(#bg-mask-0)" ><path id="路径 1" fill-rule="evenodd" style="fill:currentColor" opacity="1" d="M23.83,13c0,-5.98 -4.85,-10.83 -10.83,-10.83c-5.98,0 -10.83,4.85 -10.83,10.83c0,5.98 4.85,10.83 10.83,10.83c5.98,0 10.83,-4.85 10.83,-10.83zM13,26c-7.18,0 -13,-5.82 -13,-13c0,-7.18 5.82,-13 13,-13c7.18,0 13,5.82 13,13c0,7.18 -5.82,13 -13,13zM14.08,13.64l2.76,2.75c0.41,0.43 0.41,1.11 -0.01,1.53c-0.2,0.2 -0.47,0.32 -0.76,0.32c-0.29,0 -0.56,-0.11 -0.76,-0.32l-3.08,-3.08c-0.2,-0.2 -0.32,-0.47 -0.31,-0.75v-6.51c0,-0.6 0.48,-1.08 1.08,-1.08c0.6,0 1.08,0.49 1.08,1.08z"></path></g></g><defs><rect id="path_0" x="0" y="0" width="26" height="26" /></defs></svg>