<svg xmlns="http://www.w3.org/2000/svg" xmlns:xlink="http://www.w3.org/1999/xlink" width="26" height="26" viewBox="0 0 26 26" fill="none"><g opacity="1"  transform="translate(0 0)  rotate(0)"><mask id="bg-mask-0" fill="white"><use xlink:href="#path_0"></use></mask><g mask="url(#bg-mask-0)" ><path id="路径 1" fill-rule="evenodd" style="fill:currentColor" opacity="1" d="M14.472,1.19989v13.34001h-2.95v-13.34001zM19.782,3.40989c2.94,2.19 5.01,5.71 5.01,9.67001c0,6.45 -5.31,11.72 -11.79,11.72c-6.48001,0 -11.79001,-5.27 -11.79001,-11.72c0,-3.96001 2.06,-7.48001 5.01,-9.67001l2.21,2.19c-2.5,1.47 -4.27,4.25 -4.27,7.48001c0,4.83 3.98,8.79 8.84001,8.79c4.86,0 8.84,-3.96 8.84,-8.79c0,-3.23001 -1.77,-6.01001 -4.13,-7.62001z"></path></g></g><defs><rect id="path_0" x="0" y="0" width="26" height="26" /></defs></svg>